<?xml version="1.0" encoding="utf-8"?>
<!-- Generator: Adobe Illustrator 23.0.4, SVG Export Plug-In . SVG Version: 6.00 Build 0)  -->
<svg version="1.1" id="Layer_1" xmlns="http://www.w3.org/2000/svg" xmlns:xlink="http://www.w3.org/1999/xlink" x="0px" y="0px"
	 width="550px" height="360px" viewBox="0 0 550 360" style="enable-background:new 0 0 550 360;" xml:space="preserve">
<style type="text/css">
	.st0{fill:none;stroke:#3A356D;stroke-width:3;stroke-linecap:round;stroke-linejoin:round;stroke-miterlimit:10;}
	.st1{opacity:0.25;}
	.st2{fill:none;stroke:#3A356D;stroke-width:3;stroke-linecap:round;stroke-linejoin:round;}
	.st3{fill:none;stroke:#3A356D;stroke-width:3;stroke-linecap:round;stroke-linejoin:round;stroke-dasharray:0,4.9983;}
	.st4{fill:none;stroke:#3A356D;stroke-width:3;stroke-linecap:round;stroke-linejoin:round;stroke-dasharray:0,4.9973;}
	.st5{fill:none;stroke:#3A356D;stroke-width:3;stroke-linecap:round;stroke-linejoin:round;stroke-dasharray:0,4.9963;}
	.st6{fill:none;stroke:#3A356D;stroke-width:3;stroke-linecap:round;stroke-linejoin:round;stroke-dasharray:0,4.9952;}
	.st7{fill:#F5F5F5;stroke:#3A356D;stroke-width:3;stroke-linecap:round;stroke-linejoin:round;stroke-miterlimit:10;}
	.st8{display:none;fill:none;stroke:#3A356D;stroke-width:3;stroke-linecap:round;stroke-linejoin:round;stroke-miterlimit:10;}
	.st9{fill:#CDCCD9;enable-background:new    ;}
	.st10{fill:#F5F5F5;enable-background:new    ;}
	.st11{fill:none;stroke:#3A356D;stroke-width:3.0192;stroke-linecap:round;stroke-linejoin:round;stroke-miterlimit:10;}
	.st12{fill:none;stroke:#3A356D;stroke-width:3;stroke-linecap:round;stroke-linejoin:round;stroke-dasharray:0,5.1791;}
	.st13{fill:none;stroke:#3A356D;stroke-width:3;stroke-linecap:round;stroke-linejoin:round;stroke-dasharray:0,5.172;}
	.st14{fill:none;stroke:#3A356D;stroke-width:3;stroke-linecap:round;stroke-linejoin:round;stroke-dasharray:0,5.1648;}
	.st15{fill:none;stroke:#3A356D;stroke-width:3;stroke-linecap:round;stroke-linejoin:round;stroke-dasharray:0,5.1576;}
	.st16{fill:none;stroke:#3A356D;stroke-width:3;stroke-linecap:round;stroke-linejoin:round;stroke-dasharray:0,5.5779;}
	.st17{fill:#CDCCD9;stroke:#3A356D;stroke-width:3;stroke-linecap:round;stroke-linejoin:round;stroke-miterlimit:10;}
	.st18{fill:#F5F5F5;}
</style>
<g>
	<line class="st0" x1="129.3" y1="122.8" x2="237.3" y2="79.1"/>
	<path class="st0" d="M133.6,135.7c1.6,1.2-5.6,58.9-5.4,76.7c0.2,14.1,3.2,32.8,4.5,39.6l4.7,1.4V130.9c0-0.6,0-1.1,0-1.3
		c0-3.3-2.3-6.5-5-7.2s-4.9,1.4-4.9,4.7c0,2.2,1,4.4,2.5,5.8C131.5,134.4,132.6,134.9,133.6,135.7z"/>
	<g>
		<g class="st1">
			<g>
				<line class="st2" x1="223.1" y1="152.9" x2="223.1" y2="152.9"/>
				<path class="st3" d="M223.1,147.9V96.3c0-0.6,0-1.1,0-1.3c0-3.3-2.3-6.5-5-7.2H218"/>
				<line class="st2" x1="215.5" y1="87.9" x2="215.5" y2="87.9"/>
			</g>
		</g>
		<g class="st1">
			<g>
				<line class="st2" x1="201.7" y1="161.6" x2="201.7" y2="161.6"/>
				<path class="st4" d="M201.7,156.6v-51.7c0-0.6,0-1.1,0-1.3c0-3.3-2.3-6.5-5-7.2h-0.1"/>
				<line class="st2" x1="194.1" y1="96.6" x2="194.1" y2="96.6"/>
			</g>
		</g>
		<g class="st1">
			<g>
				<line class="st2" x1="180.3" y1="170.3" x2="180.3" y2="170.3"/>
				<path class="st5" d="M180.3,165.3v-51.6c0-0.6,0-1.1,0-1.3c0-3.3-2.3-6.5-5-7.2h-0.1"/>
				<line class="st2" x1="172.7" y1="105.3" x2="172.7" y2="105.3"/>
			</g>
		</g>
		<g class="st1">
			<g>
				<line class="st2" x1="158.8" y1="178.9" x2="158.8" y2="178.9"/>
				<path class="st6" d="M158.8,173.9v-51.6c0-0.6,0-1.1,0-1.3c0-3.3-2.3-6.5-5-7.2h-0.1"/>
				<line class="st2" x1="151.3" y1="114" x2="151.3" y2="114"/>
			</g>
		</g>
	</g>
	<path class="st0" d="M244.5,145.6v-58c0-0.6,0-1.1,0-1.3c0-3.3-2.3-6.5-5-7.2c-0.9-0.2-1.8-0.1-2.5,0.2"/>
</g>
<g>
	<path class="st0" d="M132.6,251.9v4.7l0,0c0,0.1,0.1,0.1,0.2,0.2l5.7,1.7"/>
	<line class="st0" x1="138.5" y1="253.7" x2="138.5" y2="258.5"/>
</g>
<line class="st0" x1="138.5" y1="258.5" x2="142.9" y2="256.1"/>
<polyline class="st7" points="279.8,297.8 310.2,306.9 310.1,261 137.4,207.5 137.4,253.4 167.7,262.8 167.7,235.3 279.8,270 
	279.8,297.5 "/>
<line class="st8" x1="167.7" y1="244.5" x2="167.7" y2="235.3"/>
<g>
	<path class="st9" d="M202.8,247.6l-47.1,19l15.1,4.6c2.3,2.6,5,4.6,8,5.5c2.9,0.9,5.6,0.7,7.8-0.4l48.3,15v5.2l43.3-17.5v-7.9
		L202.8,247.6z"/>
	<g>
		<line class="st0" x1="235" y1="295" x2="279.5" y2="277"/>
		<line class="st0" x1="235" y1="310.8" x2="279.5" y2="292.8"/>
		<line class="st0" x1="133.6" y1="258.3" x2="180.2" y2="239.4"/>
	</g>
	<path class="st7" d="M170.9,269.7c2.3,2.6,5,4.6,8,5.5c2.9,0.9,5.6,0.7,7.8-0.4l48.3,15v27.4l-112.1-34.8v-27.5L170.9,269.7z"/>
	<line class="st0" x1="155.8" y1="265.1" x2="202.1" y2="246.4"/>
	<polygon class="st10" points="197.8,246.5 155.8,263.5 137.8,257.9 180.2,241 	"/>
</g>
<g>
	<g>
		<g>
			<path class="st0" d="M408.1,271.3v0.6l0,0c0,0.1,0.1,0.1,0.2,0.2l5.5,1.7c0.2,0.1,0.6,0.1,0.8,0l8.2-3.3c0.1,0,0.2-0.1,0.1-0.2
				l0,0v-5"/>
			<line class="st0" x1="414" y1="268.9" x2="414" y2="273.5"/>
		</g>
		<g>
			<path class="st0" d="M310.1,306.9v4.6l0,0c0,0.1,0.1,0.1,0.2,0.2l5.5,1.7c0.2,0.1,0.6,0.1,0.8,0l8.2-3.3c0.1,0,0.2-0.1,0.1-0.2
				l0,0v-5"/>
			<line class="st0" x1="315.9" y1="308.6" x2="315.9" y2="313.2"/>
		</g>
		<line class="st11" x1="315.9" y1="308.7" x2="423" y2="265.2"/>
		<path class="st0" d="M313.7,241.7c-0.4,3.4,4.9,24.8,5.1,40.8c0.2,15.5-2.4,24.7-2.9,26.2L423,265.2c0.5-1.5,3.1-10.6,2.9-26.2
			c-0.2-16-5.5-37.5-5.1-40.8"/>
		<path class="st0" d="M317.4,240.4l107-43.4c1.4-0.6,2.5-2.1,2.5-4.3c0-3.2-2.2-6.5-4.9-7.2c-0.8-0.2-1.5-0.2-2.2,0.1l-107,43.4"/>
		<g class="st1">
			<g>
				<line class="st2" x1="401.6" y1="273.7" x2="401.6" y2="273.7"/>
				<path class="st12" d="M402.8,268.7c0.9-4.4,1.8-11.6,1.7-21.1c-0.2-13.5-4-30.9-4.9-38"/>
				<line class="st2" x1="399.4" y1="207" x2="399.4" y2="207"/>
			</g>
			<g>
				<line class="st2" x1="380.1" y1="282.5" x2="380.1" y2="282.5"/>
				<path class="st13" d="M381.3,277.5c0.9-4.4,1.8-11.6,1.7-21.1c-0.2-13.5-3.9-30.7-4.9-37.9"/>
				<line class="st2" x1="377.9" y1="215.8" x2="377.9" y2="215.8"/>
			</g>
			<g>
				<line class="st2" x1="358.7" y1="291.2" x2="358.7" y2="291.2"/>
				<path class="st14" d="M359.9,286.2c0.9-4.4,1.8-11.6,1.7-21.1c-0.2-13.4-3.9-30.6-4.9-37.8"/>
				<line class="st2" x1="356.5" y1="224.7" x2="356.5" y2="224.7"/>
			</g>
			<g>
				<line class="st2" x1="337.3" y1="299.9" x2="337.3" y2="299.9"/>
				<path class="st15" d="M338.5,294.9c0.9-4.4,1.8-11.6,1.7-21.1c-0.2-13.3-3.9-30.4-4.9-37.7"/>
				<line class="st2" x1="335.1" y1="233.5" x2="335.1" y2="233.5"/>
			</g>
		</g>
		<g class="st1">
			<g>
				<g>
					<line class="st2" x1="424.1" y1="197" x2="424.1" y2="197"/>
					<path class="st16" d="M426.6,192.4c-0.1-2.9-2-5.8-4.3-6.7"/>
					<line class="st2" x1="419.5" y1="185.6" x2="419.5" y2="185.6"/>
				</g>
			</g>
			<g>
				<g>
					<line class="st2" x1="402.7" y1="205.7" x2="402.7" y2="205.7"/>
					<path class="st16" d="M405.1,201.1c-0.1-2.9-2-5.8-4.3-6.7"/>
					<line class="st2" x1="398.1" y1="194.2" x2="398.1" y2="194.2"/>
				</g>
			</g>
			<g>
				<g>
					<line class="st2" x1="381.2" y1="214.3" x2="381.2" y2="214.3"/>
					<path class="st16" d="M383.7,209.7c-0.1-2.9-2-5.8-4.3-6.7"/>
					<line class="st2" x1="376.7" y1="202.9" x2="376.7" y2="202.9"/>
				</g>
			</g>
			<g>
				<g>
					<line class="st2" x1="359.8" y1="223" x2="359.8" y2="223"/>
					<path class="st16" d="M362.3,218.4c-0.1-2.9-2-5.8-4.3-6.7"/>
					<line class="st2" x1="355.2" y1="211.6" x2="355.2" y2="211.6"/>
				</g>
			</g>
			<g>
				<g>
					<line class="st2" x1="338.4" y1="231.6" x2="338.4" y2="231.6"/>
					<path class="st16" d="M340.9,227c-0.1-2.9-2-5.8-4.3-6.7"/>
					<line class="st2" x1="333.8" y1="220.2" x2="333.8" y2="220.2"/>
				</g>
			</g>
			<g>
				<g>
					<line class="st2" x1="317" y1="240.3" x2="317" y2="240.3"/>
					<path class="st16" d="M319.5,235.7c-0.1-2.9-2-5.8-4.3-6.7"/>
					<line class="st2" x1="312.4" y1="228.9" x2="312.4" y2="228.9"/>
				</g>
			</g>
		</g>
		<path class="st0" d="M310.2,306.9l5.7,1.8c0.5-1.5,3.1-10.6,2.9-26.2c-0.2-17.3-6.4-40.9-4.8-41.3c1-0.2,2-0.2,3.5-0.9
			c1.4-0.6,2.3-2.2,2.3-4.4c0-3.2-2.2-6.4-4.8-7.1c-2.6-0.7-4.7,1.3-4.7,4.5C310.2,236.5,310,293.2,310.2,306.9z"/>
	</g>
	<path class="st17" d="M310.2,233.5c0-2.3,1-3.9,2.6-4.5l0,0l88.8-36l-150.4-46.6c-3.6-1.1-9.1-1-12.3,0.3l-95.7,38.7
		c-3.2,1.3-2.8,3.2,0.9,4.3l159.6,49.5c1.9,0.6,4.3,0.8,6.6,0.8C310.2,236.3,310.2,234,310.2,233.5z"/>
	<path class="st17" d="M310.1,239.8c-2.3,0.1-4.6-0.2-6.5-0.8L144,189.6c-2-0.6-3-1.5-3-2.3l-0.1,19.6c0,0.9,1,1.7,3,2.3l159.6,49.5
		c1.9,0.6,4.3,0.8,6.6,0.7V239.8z"/>
</g>
<polygon class="st18" points="281.3,296.7 308.8,304.9 308.5,262.1 139,209.6 139,225.9 167.3,233.5 281.3,268.9 "/>
<path class="st7" d="M310.2,306.9l5.7,1.8c0.5-1.5,3.1-10.6,2.9-26.2c-0.2-17.3-6.4-40.9-4.8-41.3c1-0.2,2-0.2,3.5-0.9
	c1.4-0.6,2.3-2.2,2.3-4.4c0-3.2-2.2-6.4-4.8-7.1c-2.6-0.7-4.7,1.3-4.7,4.5C310.2,236.5,310,293.2,310.2,306.9z"/>
<path class="st18" d="M337.3,287l-10.4,12.9c0.1-0.4-8.8,6.6-8.5,5.4c0.9-3.8,2.1-10.4,1.9-22.3c-0.2-17.3-5.6-39.2-4-39.6
	c1-0.2,17-3.7,17-0.5C333.1,246.1,337.1,273.3,337.3,287z"/>
<polyline class="st0" points="167.7,235.3 279.8,270 279.8,297.5 "/>
</svg>
