<svg version="1.1" id="el_Q48kTrhT1" xmlns="http://www.w3.org/2000/svg" xmlns:xlink="http://www.w3.org/1999/xlink" x="0px" y="0px" viewBox="0 0 550 360" style="enable-background:new 0 0 550 360;" xml:space="preserve"><style>@-webkit-keyframes kf_el_c-Jiq7whAZy_an_7IAvGyn0u{0%{-webkit-transform: translate(122.9000015258789px, 239.39999389648438px) translate(-122.9000015258789px, -239.39999389648438px) translate(0px, 0px);transform: translate(122.9000015258789px, 239.39999389648438px) translate(-122.9000015258789px, -239.39999389648438px) translate(0px, 0px);}25%{-webkit-transform: translate(122.9000015258789px, 239.39999389648438px) translate(-122.9000015258789px, -239.39999389648438px) translate(45px, -19px);transform: translate(122.9000015258789px, 239.39999389648438px) translate(-122.9000015258789px, -239.39999389648438px) translate(45px, -19px);}50%{-webkit-transform: translate(122.9000015258789px, 239.39999389648438px) translate(-122.9000015258789px, -239.39999389648438px) translate(0px, 0px);transform: translate(122.9000015258789px, 239.39999389648438px) translate(-122.9000015258789px, -239.39999389648438px) translate(0px, 0px);}100%{-webkit-transform: translate(122.9000015258789px, 239.39999389648438px) translate(-122.9000015258789px, -239.39999389648438px) translate(0px, 0px);transform: translate(122.9000015258789px, 239.39999389648438px) translate(-122.9000015258789px, -239.39999389648438px) translate(0px, 0px);}}@keyframes kf_el_c-Jiq7whAZy_an_7IAvGyn0u{0%{-webkit-transform: translate(122.9000015258789px, 239.39999389648438px) translate(-122.9000015258789px, -239.39999389648438px) translate(0px, 0px);transform: translate(122.9000015258789px, 239.39999389648438px) translate(-122.9000015258789px, -239.39999389648438px) translate(0px, 0px);}25%{-webkit-transform: translate(122.9000015258789px, 239.39999389648438px) translate(-122.9000015258789px, -239.39999389648438px) translate(45px, -19px);transform: translate(122.9000015258789px, 239.39999389648438px) translate(-122.9000015258789px, -239.39999389648438px) translate(45px, -19px);}50%{-webkit-transform: translate(122.9000015258789px, 239.39999389648438px) translate(-122.9000015258789px, -239.39999389648438px) translate(0px, 0px);transform: translate(122.9000015258789px, 239.39999389648438px) translate(-122.9000015258789px, -239.39999389648438px) translate(0px, 0px);}100%{-webkit-transform: translate(122.9000015258789px, 239.39999389648438px) translate(-122.9000015258789px, -239.39999389648438px) translate(0px, 0px);transform: translate(122.9000015258789px, 239.39999389648438px) translate(-122.9000015258789px, -239.39999389648438px) translate(0px, 0px);}}#el_Q48kTrhT1 *{-webkit-animation-duration: 4s;animation-duration: 4s;-webkit-animation-iteration-count: infinite;animation-iteration-count: infinite;-webkit-animation-timing-function: cubic-bezier(0, 0, 1, 1);animation-timing-function: cubic-bezier(0, 0, 1, 1);}#el_oix7AZDJ9t{fill: none;stroke: #3A356D;stroke-width: 3;stroke-linecap: round;stroke-linejoin: round;stroke-miterlimit: 10;}#el_Buj4XhtXgy{fill: none;stroke: #3A356D;stroke-width: 3;stroke-linecap: round;stroke-linejoin: round;stroke-miterlimit: 10;}#el_irsYjP-56R{opacity: 0.25;}#el_QxMWJ4ORQg{fill: none;stroke: #3A356D;stroke-width: 3;stroke-linecap: round;stroke-linejoin: round;}#el_o1RU5vA9hv{fill: none;stroke: #3A356D;stroke-width: 3;stroke-linecap: round;stroke-linejoin: round;stroke-dasharray: 0,4.9983;}#el_hnXBjaf2Wy{fill: none;stroke: #3A356D;stroke-width: 3;stroke-linecap: round;stroke-linejoin: round;}#el_A0H4NOamg7{opacity: 0.25;}#el_TzG8Ayx3pc{fill: none;stroke: #3A356D;stroke-width: 3;stroke-linecap: round;stroke-linejoin: round;}#el_JxksAU_nEW{fill: none;stroke: #3A356D;stroke-width: 3;stroke-linecap: round;stroke-linejoin: round;stroke-dasharray: 0,4.9973;}#el_5ht58S3M2f{fill: none;stroke: #3A356D;stroke-width: 3;stroke-linecap: round;stroke-linejoin: round;}#el_C1Ut1N6xlr{opacity: 0.25;}#el_-t5DoaD06EE{fill: none;stroke: #3A356D;stroke-width: 3;stroke-linecap: round;stroke-linejoin: round;}#el_uG2iCpG24_w{fill: none;stroke: #3A356D;stroke-width: 3;stroke-linecap: round;stroke-linejoin: round;stroke-dasharray: 0,4.9963;}#el_4fe87Q0u0Se{fill: none;stroke: #3A356D;stroke-width: 3;stroke-linecap: round;stroke-linejoin: round;}#el_XPv3UCeE7tJ{opacity: 0.25;}#el_OhMPK5I0WDW{fill: none;stroke: #3A356D;stroke-width: 3;stroke-linecap: round;stroke-linejoin: round;}#el_j2cq0__YJYt{fill: none;stroke: #3A356D;stroke-width: 3;stroke-linecap: round;stroke-linejoin: round;stroke-dasharray: 0,4.9952;}#el_DIlNjiO7NqL{fill: none;stroke: #3A356D;stroke-width: 3;stroke-linecap: round;stroke-linejoin: round;}#el_Ef1UtZqh1lh{fill: none;stroke: #3A356D;stroke-width: 3;stroke-linecap: round;stroke-linejoin: round;stroke-miterlimit: 10;}#el_v8FfChD7WVc{fill: none;stroke: #3A356D;stroke-width: 3;stroke-linecap: round;stroke-linejoin: round;stroke-miterlimit: 10;}#el_Qs6mIgjNJmU{fill: none;stroke: #3A356D;stroke-width: 3;stroke-linecap: round;stroke-linejoin: round;stroke-miterlimit: 10;}#el_Z7Gw4tRl7j2{fill: none;stroke: #3A356D;stroke-width: 3;stroke-linecap: round;stroke-linejoin: round;stroke-miterlimit: 10;}#el__5XVcZoC6YN{fill: #FFFFFF;stroke: #3A356D;stroke-width: 3;stroke-linecap: round;stroke-linejoin: round;stroke-miterlimit: 10;}#el_yhsi0_Cyh1M{display: none;fill: none;stroke: #3A356D;stroke-width: 3;stroke-linecap: round;stroke-linejoin: round;stroke-miterlimit: 10;}#el_fOGrRKo4yI5{fill: #CDCCD9;enable-background: new;}#el_zVcQJVTn1Su{fill: none;stroke: #3A356D;stroke-width: 3;stroke-linecap: round;stroke-linejoin: round;stroke-miterlimit: 10;}#el_Hc3KULgTZAE{fill: none;stroke: #3A356D;stroke-width: 3;stroke-linecap: round;stroke-linejoin: round;stroke-miterlimit: 10;}#el_fht1qWpawDN{fill: none;stroke: #3A356D;stroke-width: 3;stroke-linecap: round;stroke-linejoin: round;stroke-miterlimit: 10;}#el_NKLvH0jDu6-{fill: #FFFFFF;stroke: #3A356D;stroke-width: 3;stroke-linecap: round;stroke-linejoin: round;stroke-miterlimit: 10;}#el_xpUyRpv0SIN{fill: none;stroke: #3A356D;stroke-width: 3;stroke-linecap: round;stroke-linejoin: round;stroke-miterlimit: 10;}#el_NLRW0ZiqR2a{fill: #FFFFFF;enable-background: new;}#el_pAjFqEFaEXm{fill: none;stroke: #3A356D;stroke-width: 3;stroke-linecap: round;stroke-linejoin: round;stroke-miterlimit: 10;}#el_9PxMeR81qSG{fill: none;stroke: #3A356D;stroke-width: 3;stroke-linecap: round;stroke-linejoin: round;stroke-miterlimit: 10;}#el_sF-qXeXul75{fill: none;stroke: #3A356D;stroke-width: 3;stroke-linecap: round;stroke-linejoin: round;stroke-miterlimit: 10;}#el_zfl723cLvpQ{fill: none;stroke: #3A356D;stroke-width: 3;stroke-linecap: round;stroke-linejoin: round;stroke-miterlimit: 10;}#el_dQgesLjbtOr{fill: none;stroke: #3A356D;stroke-width: 3.0192;stroke-linecap: round;stroke-linejoin: round;stroke-miterlimit: 10;}#el_WTViOF42I48{fill: none;stroke: #3A356D;stroke-width: 3;stroke-linecap: round;stroke-linejoin: round;stroke-miterlimit: 10;}#el_hsyqzcgknE1{fill: none;stroke: #3A356D;stroke-width: 3;stroke-linecap: round;stroke-linejoin: round;stroke-miterlimit: 10;}#el_nMturX1DomJ{opacity: 0.25;}#el_xD40BGHIAqo{fill: none;stroke: #3A356D;stroke-width: 3;stroke-linecap: round;stroke-linejoin: round;}#el_COr1EvLUKOL{fill: none;stroke: #3A356D;stroke-width: 3;stroke-linecap: round;stroke-linejoin: round;stroke-dasharray: 0,5.1791;}#el_F54k2lcUdWQ{fill: none;stroke: #3A356D;stroke-width: 3;stroke-linecap: round;stroke-linejoin: round;}#el_-PU33q9Bsll{fill: none;stroke: #3A356D;stroke-width: 3;stroke-linecap: round;stroke-linejoin: round;}#el_pSgbMSJ8zQJ{fill: none;stroke: #3A356D;stroke-width: 3;stroke-linecap: round;stroke-linejoin: round;stroke-dasharray: 0,5.172;}#el_1KfgpLGDRAD{fill: none;stroke: #3A356D;stroke-width: 3;stroke-linecap: round;stroke-linejoin: round;}#el_Zyu2sJ1sh_P{fill: none;stroke: #3A356D;stroke-width: 3;stroke-linecap: round;stroke-linejoin: round;}#el_BIg01NIlmgl{fill: none;stroke: #3A356D;stroke-width: 3;stroke-linecap: round;stroke-linejoin: round;stroke-dasharray: 0,5.1648;}#el_Ihf1kIaVHhN{fill: none;stroke: #3A356D;stroke-width: 3;stroke-linecap: round;stroke-linejoin: round;}#el_UeXnNgy9Cga{fill: none;stroke: #3A356D;stroke-width: 3;stroke-linecap: round;stroke-linejoin: round;}#el_NmX6WcmwXl1{fill: none;stroke: #3A356D;stroke-width: 3;stroke-linecap: round;stroke-linejoin: round;stroke-dasharray: 0,5.1576;}#el_gxdm2OP0EU-{fill: none;stroke: #3A356D;stroke-width: 3;stroke-linecap: round;stroke-linejoin: round;}#el_POI-FnPAF6N{opacity: 0.25;}#el_-ZtDrHxRFTj{fill: none;stroke: #3A356D;stroke-width: 3;stroke-linecap: round;stroke-linejoin: round;}#el_EIoyiibdJEc{fill: none;stroke: #3A356D;stroke-width: 3;stroke-linecap: round;stroke-linejoin: round;stroke-dasharray: 0,5.5779;}#el_odBgb6t5oC9{fill: none;stroke: #3A356D;stroke-width: 3;stroke-linecap: round;stroke-linejoin: round;}#el_WbTVcRh77m1{fill: none;stroke: #3A356D;stroke-width: 3;stroke-linecap: round;stroke-linejoin: round;}#el_JsbPMgtlJYk{fill: none;stroke: #3A356D;stroke-width: 3;stroke-linecap: round;stroke-linejoin: round;stroke-dasharray: 0,5.5779;}#el_ODufXxjZuOU{fill: none;stroke: #3A356D;stroke-width: 3;stroke-linecap: round;stroke-linejoin: round;}#el_OfbRYvhpPJE{fill: none;stroke: #3A356D;stroke-width: 3;stroke-linecap: round;stroke-linejoin: round;}#el_R5ol5CPfomS{fill: none;stroke: #3A356D;stroke-width: 3;stroke-linecap: round;stroke-linejoin: round;stroke-dasharray: 0,5.5779;}#el_meP9L96DrF4{fill: none;stroke: #3A356D;stroke-width: 3;stroke-linecap: round;stroke-linejoin: round;}#el_MJYNZQhJ8lG{fill: none;stroke: #3A356D;stroke-width: 3;stroke-linecap: round;stroke-linejoin: round;}#el__1S3vIIefAl{fill: none;stroke: #3A356D;stroke-width: 3;stroke-linecap: round;stroke-linejoin: round;stroke-dasharray: 0,5.5779;}#el_2Y9MHLqypAK{fill: none;stroke: #3A356D;stroke-width: 3;stroke-linecap: round;stroke-linejoin: round;}#el_1oKTGEXW3ZN{fill: none;stroke: #3A356D;stroke-width: 3;stroke-linecap: round;stroke-linejoin: round;}#el_Kn0uFFZQeK5{fill: none;stroke: #3A356D;stroke-width: 3;stroke-linecap: round;stroke-linejoin: round;stroke-dasharray: 0,5.5779;}#el_p3mOSEmuoFd{fill: none;stroke: #3A356D;stroke-width: 3;stroke-linecap: round;stroke-linejoin: round;}#el__9-aaMfmpU3{fill: none;stroke: #3A356D;stroke-width: 3;stroke-linecap: round;stroke-linejoin: round;}#el_UJnun8grrDB{fill: none;stroke: #3A356D;stroke-width: 3;stroke-linecap: round;stroke-linejoin: round;stroke-dasharray: 0,5.5779;}#el_dAFmln892lY{fill: none;stroke: #3A356D;stroke-width: 3;stroke-linecap: round;stroke-linejoin: round;}#el_T_cnp7cFCoh{fill: none;stroke: #3A356D;stroke-width: 3;stroke-linecap: round;stroke-linejoin: round;stroke-miterlimit: 10;}#el_UecsVK-SwQD{fill: #CDCCD9;stroke: #3A356D;stroke-width: 3;stroke-linecap: round;stroke-linejoin: round;stroke-miterlimit: 10;}#el_kkIGiFAUItK{fill: #CDCCD9;stroke: #3A356D;stroke-width: 3;stroke-linecap: round;stroke-linejoin: round;stroke-miterlimit: 10;}#el_cEY-p_TVEFW{fill: #FFFFFF;}#el_3WLQ9O3hAaR{fill: #FFFFFF;stroke: #3A356D;stroke-width: 3;stroke-linecap: round;stroke-linejoin: round;stroke-miterlimit: 10;}#el_58zb_VsQqpG{fill: #FFFFFF;}#el_JQe__HA9MtM{fill: none;stroke: #3A356D;stroke-width: 3;stroke-linecap: round;stroke-linejoin: round;stroke-miterlimit: 10;}#el_c-Jiq7whAZy_an_7IAvGyn0u{-webkit-animation-fill-mode: backwards;animation-fill-mode: backwards;-webkit-transform: translate(122.9000015258789px, 239.39999389648438px) translate(-122.9000015258789px, -239.39999389648438px) translate(0px, 0px);transform: translate(122.9000015258789px, 239.39999389648438px) translate(-122.9000015258789px, -239.39999389648438px) translate(0px, 0px);-webkit-animation-name: kf_el_c-Jiq7whAZy_an_7IAvGyn0u;animation-name: kf_el_c-Jiq7whAZy_an_7IAvGyn0u;-webkit-animation-timing-function: cubic-bezier(0, 0, 1, 1);animation-timing-function: cubic-bezier(0, 0, 1, 1);}</style>

<g id="el__OqoVl_r_u">
	<line x1="129.3" y1="122.8" x2="237.3" y2="79.1" id="el_oix7AZDJ9t"/>
	<path d="M133.6,135.7c1.6,1.2-5.6,58.9-5.4,76.7c0.2,14.1,3.2,32.8,4.5,39.6l4.7,1.4V130.9c0-0.6,0-1.1,0-1.3&#10;&#9;&#9;c0-3.3-2.3-6.5-5-7.2s-4.9,1.4-4.9,4.7c0,2.2,1,4.4,2.5,5.8C131.5,134.4,132.6,134.9,133.6,135.7z" id="el_Buj4XhtXgy"/>
	<g id="el_FLl4AOyaPc">
		<g id="el_irsYjP-56R">
			<g id="el_8BLnCzpXV6">
				<line x1="223.1" y1="152.9" x2="223.1" y2="152.9" id="el_QxMWJ4ORQg"/>
				<path d="M223.1,147.9V96.3c0-0.6,0-1.1,0-1.3c0-3.3-2.3-6.5-5-7.2H218" id="el_o1RU5vA9hv"/>
				<line x1="215.5" y1="87.9" x2="215.5" y2="87.9" id="el_hnXBjaf2Wy"/>
			</g>
		</g>
		<g id="el_A0H4NOamg7">
			<g id="el_W74_QgJSEc">
				<line x1="201.7" y1="161.6" x2="201.7" y2="161.6" id="el_TzG8Ayx3pc"/>
				<path d="M201.7,156.6v-51.7c0-0.6,0-1.1,0-1.3c0-3.3-2.3-6.5-5-7.2h-0.1" id="el_JxksAU_nEW"/>
				<line x1="194.1" y1="96.6" x2="194.1" y2="96.6" id="el_5ht58S3M2f"/>
			</g>
		</g>
		<g id="el_C1Ut1N6xlr">
			<g id="el_8e8CGDfdejU">
				<line x1="180.3" y1="170.3" x2="180.3" y2="170.3" id="el_-t5DoaD06EE"/>
				<path d="M180.3,165.3v-51.6c0-0.6,0-1.1,0-1.3c0-3.3-2.3-6.5-5-7.2h-0.1" id="el_uG2iCpG24_w"/>
				<line x1="172.7" y1="105.3" x2="172.7" y2="105.3" id="el_4fe87Q0u0Se"/>
			</g>
		</g>
		<g id="el_XPv3UCeE7tJ">
			<g id="el_6TqxW7TtrQz">
				<line x1="158.8" y1="178.9" x2="158.8" y2="178.9" id="el_OhMPK5I0WDW"/>
				<path d="M158.8,173.9v-51.6c0-0.6,0-1.1,0-1.3c0-3.3-2.3-6.5-5-7.2h-0.1" id="el_j2cq0__YJYt"/>
				<line x1="151.3" y1="114" x2="151.3" y2="114" id="el_DIlNjiO7NqL"/>
			</g>
		</g>
	</g>
	<path d="M244.5,145.6v-58c0-0.6,0-1.1,0-1.3c0-3.3-2.3-6.5-5-7.2c-0.9-0.2-1.8-0.1-2.5,0.2" id="el_Ef1UtZqh1lh"/>
</g>
<g id="el_x4ayqA4UExY">
	<path d="M132.6,251.9v4.7l0,0c0,0.1,0.1,0.1,0.2,0.2l5.7,1.7" id="el_v8FfChD7WVc"/>
	<line x1="138.5" y1="253.7" x2="138.5" y2="258.5" id="el_Qs6mIgjNJmU"/>
</g>
<line x1="138.5" y1="258.5" x2="142.9" y2="256.1" id="el_Z7Gw4tRl7j2"/>
<polyline points="279.8,297.8 310.2,306.9 310.1,261 137.4,207.5 137.4,253.4 167.7,262.8 167.7,235.3 279.8,270 &#10;&#9;279.8,297.5 " id="el__5XVcZoC6YN"/>
<line x1="167.7" y1="244.5" x2="167.7" y2="235.3" id="el_yhsi0_Cyh1M"/>
<g id="el_c-Jiq7whAZy_an_7IAvGyn0u" data-animator-group="true" data-animator-type="0"><g id="el_c-Jiq7whAZy">
	<path d="M202.8,247.6l-47.1,19l15.1,4.6c2.3,2.6,5,4.6,8,5.5c2.9,0.9,5.6,0.7,7.8-0.4l48.3,15v5.2l43.3-17.5v-7.9&#10;&#9;&#9;L202.8,247.6z" id="el_fOGrRKo4yI5"/>
	<g id="el_Q3-vaMADtyv">
		<line x1="235" y1="295" x2="279.5" y2="277" id="el_zVcQJVTn1Su"/>
		<line x1="235" y1="310.8" x2="279.5" y2="292.8" id="el_Hc3KULgTZAE"/>
		<line x1="133.6" y1="258.3" x2="180.2" y2="239.4" id="el_fht1qWpawDN"/>
	</g>
	<path d="M170.9,269.7c2.3,2.6,5,4.6,8,5.5c2.9,0.9,5.6,0.7,7.8-0.4l48.3,15v27.4l-112.1-34.8v-27.5L170.9,269.7z" id="el_NKLvH0jDu6-"/>
	<line x1="155.8" y1="265.1" x2="202.1" y2="246.4" id="el_xpUyRpv0SIN"/>
	<polygon points="197.8,246.5 155.8,263.5 137.8,257.9 180.2,241 &#9;" id="el_NLRW0ZiqR2a"/>
</g></g>
<g id="el_wMaqQBoKMWt">
	<g id="el_6BVbSbRhdz8">
		<g id="el_LBCMNAhfSsg">
			<path d="M408.1,271.3v0.6l0,0c0,0.1,0.1,0.1,0.2,0.2l5.5,1.7c0.2,0.1,0.6,0.1,0.8,0l8.2-3.3c0.1,0,0.2-0.1,0.1-0.2&#10;&#9;&#9;&#9;&#9;l0,0v-5" id="el_pAjFqEFaEXm"/>
			<line x1="414" y1="268.9" x2="414" y2="273.5" id="el_9PxMeR81qSG"/>
		</g>
		<g id="el_B47fW5e7D84">
			<path d="M310.1,306.9v4.6l0,0c0,0.1,0.1,0.1,0.2,0.2l5.5,1.7c0.2,0.1,0.6,0.1,0.8,0l8.2-3.3c0.1,0,0.2-0.1,0.1-0.2&#10;&#9;&#9;&#9;&#9;l0,0v-5" id="el_sF-qXeXul75"/>
			<line x1="315.9" y1="308.6" x2="315.9" y2="313.2" id="el_zfl723cLvpQ"/>
		</g>
		<line x1="315.9" y1="308.7" x2="423" y2="265.2" id="el_dQgesLjbtOr"/>
		<path d="M313.7,241.7c-0.4,3.4,4.9,24.8,5.1,40.8c0.2,15.5-2.4,24.7-2.9,26.2L423,265.2c0.5-1.5,3.1-10.6,2.9-26.2&#10;&#9;&#9;&#9;c-0.2-16-5.5-37.5-5.1-40.8" id="el_WTViOF42I48"/>
		<path d="M317.4,240.4l107-43.4c1.4-0.6,2.5-2.1,2.5-4.3c0-3.2-2.2-6.5-4.9-7.2c-0.8-0.2-1.5-0.2-2.2,0.1l-107,43.4" id="el_hsyqzcgknE1"/>
		<g id="el_nMturX1DomJ">
			<g id="el_sCBQuExUoLb">
				<line x1="401.6" y1="273.7" x2="401.6" y2="273.7" id="el_xD40BGHIAqo"/>
				<path d="M402.8,268.7c0.9-4.4,1.8-11.6,1.7-21.1c-0.2-13.5-4-30.9-4.9-38" id="el_COr1EvLUKOL"/>
				<line x1="399.4" y1="207" x2="399.4" y2="207" id="el_F54k2lcUdWQ"/>
			</g>
			<g id="el_rHPP-CMjy_T">
				<line x1="380.1" y1="282.5" x2="380.1" y2="282.5" id="el_-PU33q9Bsll"/>
				<path d="M381.3,277.5c0.9-4.4,1.8-11.6,1.7-21.1c-0.2-13.5-3.9-30.7-4.9-37.9" id="el_pSgbMSJ8zQJ"/>
				<line x1="377.9" y1="215.8" x2="377.9" y2="215.8" id="el_1KfgpLGDRAD"/>
			</g>
			<g id="el_yW-YbKqUsUi">
				<line x1="358.7" y1="291.2" x2="358.7" y2="291.2" id="el_Zyu2sJ1sh_P"/>
				<path d="M359.9,286.2c0.9-4.4,1.8-11.6,1.7-21.1c-0.2-13.4-3.9-30.6-4.9-37.8" id="el_BIg01NIlmgl"/>
				<line x1="356.5" y1="224.7" x2="356.5" y2="224.7" id="el_Ihf1kIaVHhN"/>
			</g>
			<g id="el_rMlMLbOkLqS">
				<line x1="337.3" y1="299.9" x2="337.3" y2="299.9" id="el_UeXnNgy9Cga"/>
				<path d="M338.5,294.9c0.9-4.4,1.8-11.6,1.7-21.1c-0.2-13.3-3.9-30.4-4.9-37.7" id="el_NmX6WcmwXl1"/>
				<line x1="335.1" y1="233.5" x2="335.1" y2="233.5" id="el_gxdm2OP0EU-"/>
			</g>
		</g>
		<g id="el_POI-FnPAF6N">
			<g id="el_LjtpqkDh7LS">
				<g id="el_HImaePXOIrL">
					<line x1="424.1" y1="197" x2="424.1" y2="197" id="el_-ZtDrHxRFTj"/>
					<path d="M426.6,192.4c-0.1-2.9-2-5.8-4.3-6.7" id="el_EIoyiibdJEc"/>
					<line x1="419.5" y1="185.6" x2="419.5" y2="185.6" id="el_odBgb6t5oC9"/>
				</g>
			</g>
			<g id="el_5hRz_QWfPp0">
				<g id="el_GhxyHYjcN66">
					<line x1="402.7" y1="205.7" x2="402.7" y2="205.7" id="el_WbTVcRh77m1"/>
					<path d="M405.1,201.1c-0.1-2.9-2-5.8-4.3-6.7" id="el_JsbPMgtlJYk"/>
					<line x1="398.1" y1="194.2" x2="398.1" y2="194.2" id="el_ODufXxjZuOU"/>
				</g>
			</g>
			<g id="el_dhqfa-Zp6l3">
				<g id="el_E_hLB4EVPuV">
					<line x1="381.2" y1="214.3" x2="381.2" y2="214.3" id="el_OfbRYvhpPJE"/>
					<path d="M383.7,209.7c-0.1-2.9-2-5.8-4.3-6.7" id="el_R5ol5CPfomS"/>
					<line x1="376.7" y1="202.9" x2="376.7" y2="202.9" id="el_meP9L96DrF4"/>
				</g>
			</g>
			<g id="el_tPm2zn0Xct4">
				<g id="el_p_vIExNsFqf">
					<line x1="359.8" y1="223" x2="359.8" y2="223" id="el_MJYNZQhJ8lG"/>
					<path d="M362.3,218.4c-0.1-2.9-2-5.8-4.3-6.7" id="el__1S3vIIefAl"/>
					<line x1="355.2" y1="211.6" x2="355.2" y2="211.6" id="el_2Y9MHLqypAK"/>
				</g>
			</g>
			<g id="el_7TGtq-sAOFL">
				<g id="el_k4Bx4uzVQwB">
					<line x1="338.4" y1="231.6" x2="338.4" y2="231.6" id="el_1oKTGEXW3ZN"/>
					<path d="M340.9,227c-0.1-2.9-2-5.8-4.3-6.7" id="el_Kn0uFFZQeK5"/>
					<line x1="333.8" y1="220.2" x2="333.8" y2="220.2" id="el_p3mOSEmuoFd"/>
				</g>
			</g>
			<g id="el_0NEhaGxq9js">
				<g id="el_AOULiibtK6g">
					<line x1="317" y1="240.3" x2="317" y2="240.3" id="el__9-aaMfmpU3"/>
					<path d="M319.5,235.7c-0.1-2.9-2-5.8-4.3-6.7" id="el_UJnun8grrDB"/>
					<line x1="312.4" y1="228.9" x2="312.4" y2="228.9" id="el_dAFmln892lY"/>
				</g>
			</g>
		</g>
		<path d="M310.2,306.9l5.7,1.8c0.5-1.5,3.1-10.6,2.9-26.2c-0.2-17.3-6.4-40.9-4.8-41.3c1-0.2,2-0.2,3.5-0.9&#10;&#9;&#9;&#9;c1.4-0.6,2.3-2.2,2.3-4.4c0-3.2-2.2-6.4-4.8-7.1c-2.6-0.7-4.7,1.3-4.7,4.5C310.2,236.5,310,293.2,310.2,306.9z" id="el_T_cnp7cFCoh"/>
	</g>
	<path d="M310.2,233.5c0-2.3,1-3.9,2.6-4.5l0,0l88.8-36l-150.4-46.6c-3.6-1.1-9.1-1-12.3,0.3l-95.7,38.7&#10;&#9;&#9;c-3.2,1.3-2.8,3.2,0.9,4.3l159.6,49.5c1.9,0.6,4.3,0.8,6.6,0.8C310.2,236.3,310.2,234,310.2,233.5z" id="el_UecsVK-SwQD"/>
	<path d="M310.1,239.8c-2.3,0.1-4.6-0.2-6.5-0.8L144,189.6c-2-0.6-3-1.5-3-2.3l-0.1,19.6c0,0.9,1,1.7,3,2.3l159.6,49.5&#10;&#9;&#9;c1.9,0.6,4.3,0.8,6.6,0.7V239.8z" id="el_kkIGiFAUItK"/>
</g>
<polygon points="281.3,296.7 308.8,304.9 308.5,262.1 139,209.6 139,225.9 167.3,233.5 281.3,268.9 " id="el_cEY-p_TVEFW"/>
<path d="M310.2,306.9l5.7,1.8c0.5-1.5,3.1-10.6,2.9-26.2c-0.2-17.3-6.4-40.9-4.8-41.3c1-0.2,2-0.2,3.5-0.9&#10;&#9;c1.4-0.6,2.3-2.2,2.3-4.4c0-3.2-2.2-6.4-4.8-7.1c-2.6-0.7-4.7,1.3-4.7,4.5C310.2,236.5,310,293.2,310.2,306.9z" id="el_3WLQ9O3hAaR"/>
<path d="M337.3,287l-10.4,12.9c0.1-0.4-8.8,6.6-8.5,5.4c0.9-3.8,2.1-10.4,1.9-22.3c-0.2-17.3-5.6-39.2-4-39.6&#10;&#9;c1-0.2,17-3.7,17-0.5C333.1,246.1,337.1,273.3,337.3,287z" id="el_58zb_VsQqpG"/>
<polyline points="167.7,235.3 279.8,270 279.8,297.5 " id="el_JQe__HA9MtM"/>
</svg>